<svg xmlns="http://www.w3.org/2000/svg" width="48" height="48" fill="none"><g filter="url(#a)"><circle cx="24" cy="24" r="24" fill="url(#b)"/></g><g filter="url(#c)" opacity=".8"><path fill="url(#d)" d="M19.188 36a1 1 0 0 1-.893-1.45l8.251-16.406a.109.109 0 0 0-.097-.158H17a1 1 0 0 1-1-1V14a1 1 0 0 1 1-1h15a1 1 0 0 1 1 1v3.75a1 1 0 0 1-.106.448l-8.654 17.25a1 1 0 0 1-.894.552h-4.158z" shape-rendering="crispEdges"/></g><defs><filter id="a" width="48" height="48" x="0" y="0" color-interpolation-filters="sRGB" filterUnits="userSpaceOnUse"><feFlood flood-opacity="0" result="BackgroundImageFix"/><feBlend in="SourceGraphic" in2="BackgroundImageFix" result="shape"/><feColorMatrix in="SourceAlpha" result="hardAlpha" values="0 0 0 0 0 0 0 0 0 0 0 0 0 0 0 0 0 0 127 0"/><feMorphology in="SourceAlpha" radius="1" result="effect1_innerShadow_140_153"/><feOffset/><feGaussianBlur stdDeviation="1"/><feComposite in2="hardAlpha" k2="-1" k3="1" operator="arithmetic"/><feColorMatrix values="0 0 0 0 1 0 0 0 0 1 0 0 0 0 1 0 0 0 0.1 0"/><feBlend in2="shape" result="effect1_innerShadow_140_153"/></filter><filter id="c" width="25" height="31" x="12" y="11" color-interpolation-filters="sRGB" filterUnits="userSpaceOnUse"><feFlood flood-opacity="0" result="BackgroundImageFix"/><feColorMatrix in="SourceAlpha" result="hardAlpha" values="0 0 0 0 0 0 0 0 0 0 0 0 0 0 0 0 0 0 127 0"/><feOffset dy="2"/><feGaussianBlur stdDeviation="2"/><feComposite in2="hardAlpha" operator="out"/><feColorMatrix values="0 0 0 0 0 0 0 0 0 0 0 0 0 0 0 0 0 0 0.25 0"/><feBlend in2="BackgroundImageFix" result="effect1_dropShadow_140_153"/><feBlend in="SourceGraphic" in2="effect1_dropShadow_140_153" result="shape"/></filter><radialGradient id="b" cx="0" cy="0" r="1" gradientTransform="matrix(0 43 -43 0 24 19)" gradientUnits="userSpaceOnUse"><stop offset=".438" stop-color="#A055FF"/><stop offset=".802" stop-color="#D3FFEF"/><stop offset="1" stop-color="#fff"/></radialGradient><linearGradient id="d" x1="24.5" x2="24.5" y1="13" y2="41.111" gradientUnits="userSpaceOnUse"><stop offset=".516" stop-color="#fff"/><stop offset="1" stop-color="#fff" stop-opacity=".59"/></linearGradient></defs></svg>