<svg xmlns="http://www.w3.org/2000/svg" width="48" height="48" fill="none"><g filter="url(#a)"><circle cx="24" cy="24" r="24" fill="url(#b)"/></g><g filter="url(#c)" opacity=".8"><path fill="url(#d)" d="M17.797 13.732A1 1 0 0 1 18.76 13h9.924a1 1 0 0 1 .964 1.268l-4.445 16a1 1 0 0 1-.963.732h-9.924a1 1 0 0 1-.964-1.268l4.445-16z" shape-rendering="crispEdges"/></g><g filter="url(#e)" opacity=".8"><path fill="url(#f)" d="M23.797 17.732A1 1 0 0 1 24.76 17h9.924a1 1 0 0 1 .964 1.268l-4.445 16a1 1 0 0 1-.963.732h-9.924a1 1 0 0 1-.964-1.268l4.445-16z" shape-rendering="crispEdges"/></g><defs><filter id="a" width="48" height="48" x="0" y="0" color-interpolation-filters="sRGB" filterUnits="userSpaceOnUse"><feFlood flood-opacity="0" result="BackgroundImageFix"/><feBlend in="SourceGraphic" in2="BackgroundImageFix" result="shape"/><feColorMatrix in="SourceAlpha" result="hardAlpha" values="0 0 0 0 0 0 0 0 0 0 0 0 0 0 0 0 0 0 127 0"/><feMorphology in="SourceAlpha" radius="1" result="effect1_innerShadow_140_152"/><feOffset/><feGaussianBlur stdDeviation="1"/><feComposite in2="hardAlpha" k2="-1" k3="1" operator="arithmetic"/><feColorMatrix values="0 0 0 0 1 0 0 0 0 1 0 0 0 0 1 0 0 0 0.1 0"/><feBlend in2="shape" result="effect1_innerShadow_140_152"/></filter><filter id="c" width="24.37" height="26" x="9.315" y="11" color-interpolation-filters="sRGB" filterUnits="userSpaceOnUse"><feFlood flood-opacity="0" result="BackgroundImageFix"/><feColorMatrix in="SourceAlpha" result="hardAlpha" values="0 0 0 0 0 0 0 0 0 0 0 0 0 0 0 0 0 0 127 0"/><feOffset dy="2"/><feGaussianBlur stdDeviation="2"/><feComposite in2="hardAlpha" operator="out"/><feColorMatrix values="0 0 0 0 0 0 0 0 0 0 0 0 0 0 0 0 0 0 0.25 0"/><feBlend in2="BackgroundImageFix" result="effect1_dropShadow_140_152"/><feBlend in="SourceGraphic" in2="effect1_dropShadow_140_152" result="shape"/></filter><filter id="e" width="24.37" height="26" x="15.315" y="15" color-interpolation-filters="sRGB" filterUnits="userSpaceOnUse"><feFlood flood-opacity="0" result="BackgroundImageFix"/><feColorMatrix in="SourceAlpha" result="hardAlpha" values="0 0 0 0 0 0 0 0 0 0 0 0 0 0 0 0 0 0 127 0"/><feOffset dy="2"/><feGaussianBlur stdDeviation="2"/><feComposite in2="hardAlpha" operator="out"/><feColorMatrix values="0 0 0 0 0 0 0 0 0 0 0 0 0 0 0 0 0 0 0.25 0"/><feBlend in2="BackgroundImageFix" result="effect1_dropShadow_140_152"/><feBlend in="SourceGraphic" in2="effect1_dropShadow_140_152" result="shape"/></filter><linearGradient id="d" x1="21.5" x2="21.5" y1="13" y2="35" gradientUnits="userSpaceOnUse"><stop offset=".516" stop-color="#fff"/><stop offset="1" stop-color="#fff" stop-opacity=".59"/></linearGradient><linearGradient id="f" x1="27.5" x2="27.5" y1="17" y2="39" gradientUnits="userSpaceOnUse"><stop offset=".516" stop-color="#fff"/><stop offset="1" stop-color="#fff" stop-opacity=".59"/></linearGradient><radialGradient id="b" cx="0" cy="0" r="1" gradientTransform="matrix(0 43 -43 0 24 19)" gradientUnits="userSpaceOnUse"><stop offset=".438" stop-color="#5CF"/><stop offset=".802" stop-color="#D3FFEF"/><stop offset="1" stop-color="#fff"/></radialGradient></defs></svg>