<svg xmlns="http://www.w3.org/2000/svg" width="48" height="48" fill="none"><g filter="url(#a)"><circle cx="24" cy="24" r="24" fill="url(#b)"/></g><g filter="url(#c)"><path fill="url(#d)" d="M23.067 11.611c.256-.442.933-.26.933.25V28.5a.5.5 0 0 1-.5.5h-9.633a.5.5 0 0 1-.433-.75l9.633-16.639z" shape-rendering="crispEdges"/></g><g filter="url(#e)"><path fill="url(#f)" d="M25.937 36.313c-.25.451-.937.273-.937-.243V20.5a.5.5 0 0 1 .5-.5h8.65a.5.5 0 0 1 .437.743l-8.65 15.57z" shape-rendering="crispEdges"/></g><defs><filter id="a" width="48" height="48" x="0" y="0" color-interpolation-filters="sRGB" filterUnits="userSpaceOnUse"><feFlood flood-opacity="0" result="BackgroundImageFix"/><feBlend in="SourceGraphic" in2="BackgroundImageFix" result="shape"/><feColorMatrix in="SourceAlpha" result="hardAlpha" values="0 0 0 0 0 0 0 0 0 0 0 0 0 0 0 0 0 0 127 0"/><feMorphology in="SourceAlpha" radius="1" result="effect1_innerShadow_139_247"/><feOffset/><feGaussianBlur stdDeviation="1"/><feComposite in2="hardAlpha" k2="-1" k3="1" operator="arithmetic"/><feColorMatrix values="0 0 0 0 1 0 0 0 0 1 0 0 0 0 1 0 0 0 0.1 0"/><feBlend in2="shape" result="effect1_innerShadow_139_247"/></filter><filter id="c" width="18.634" height="25.639" x="9.366" y="9.361" color-interpolation-filters="sRGB" filterUnits="userSpaceOnUse"><feFlood flood-opacity="0" result="BackgroundImageFix"/><feColorMatrix in="SourceAlpha" result="hardAlpha" values="0 0 0 0 0 0 0 0 0 0 0 0 0 0 0 0 0 0 127 0"/><feOffset dy="2"/><feGaussianBlur stdDeviation="2"/><feComposite in2="hardAlpha" operator="out"/><feColorMatrix values="0 0 0 0 0 0 0 0 0 0 0 0 0 0 0 0 0 0 0.25 0"/><feBlend in2="BackgroundImageFix" result="effect1_dropShadow_139_247"/><feBlend in="SourceGraphic" in2="effect1_dropShadow_139_247" result="shape"/></filter><filter id="e" width="17.651" height="24.571" x="21" y="18" color-interpolation-filters="sRGB" filterUnits="userSpaceOnUse"><feFlood flood-opacity="0" result="BackgroundImageFix"/><feColorMatrix in="SourceAlpha" result="hardAlpha" values="0 0 0 0 0 0 0 0 0 0 0 0 0 0 0 0 0 0 127 0"/><feOffset dy="2"/><feGaussianBlur stdDeviation="2"/><feComposite in2="hardAlpha" operator="out"/><feColorMatrix values="0 0 0 0 0 0 0 0 0 0 0 0 0 0 0 0 0 0 0.25 0"/><feBlend in2="BackgroundImageFix" result="effect1_dropShadow_139_247"/><feBlend in="SourceGraphic" in2="effect1_dropShadow_139_247" result="shape"/></filter><linearGradient id="d" x1="18.5" x2="18.5" y1="10" y2="33.222" gradientUnits="userSpaceOnUse"><stop offset=".516" stop-color="#fff"/><stop offset="1" stop-color="#fff" stop-opacity=".59"/></linearGradient><linearGradient id="f" x1="30" x2="30" y1="38" y2="16" gradientUnits="userSpaceOnUse"><stop offset=".516" stop-color="#fff"/><stop offset="1" stop-color="#fff" stop-opacity=".59"/></linearGradient><radialGradient id="b" cx="0" cy="0" r="1" gradientTransform="matrix(0 43 -43 0 24 19)" gradientUnits="userSpaceOnUse"><stop offset=".438" stop-color="#FF7455"/><stop offset=".802" stop-color="#FFDED3"/><stop offset="1" stop-color="#fff"/></radialGradient></defs></svg>