<svg xmlns="http://www.w3.org/2000/svg" width="48" height="48" fill="none"><g filter="url(#a)"><circle cx="24" cy="24" r="24" fill="url(#b)"/></g><g filter="url(#c)"><path fill="url(#d)" fill-rule="evenodd" d="M19 12h10a7 7 0 0 1 7 7v10a7 7 0 0 1-7 7H19a7 7 0 0 1-7-7V19a7 7 0 0 1 7-7zm0 3a4 4 0 0 0-4 4v10a4 4 0 0 0 4 4h10a4 4 0 0 0 4-4V19a4 4 0 0 0-4-4H19z" clip-rule="evenodd" shape-rendering="crispEdges"/></g><defs><filter id="a" width="48" height="48" x="0" y="0" color-interpolation-filters="sRGB" filterUnits="userSpaceOnUse"><feFlood flood-opacity="0" result="BackgroundImageFix"/><feBlend in="SourceGraphic" in2="BackgroundImageFix" result="shape"/><feColorMatrix in="SourceAlpha" result="hardAlpha" values="0 0 0 0 0 0 0 0 0 0 0 0 0 0 0 0 0 0 127 0"/><feMorphology in="SourceAlpha" radius="1" result="effect1_innerShadow_139_241"/><feOffset/><feGaussianBlur stdDeviation="1"/><feComposite in2="hardAlpha" k2="-1" k3="1" operator="arithmetic"/><feColorMatrix values="0 0 0 0 1 0 0 0 0 1 0 0 0 0 1 0 0 0 0.2 0"/><feBlend in2="shape" result="effect1_innerShadow_139_241"/></filter><filter id="c" width="32" height="32" x="8" y="10" color-interpolation-filters="sRGB" filterUnits="userSpaceOnUse"><feFlood flood-opacity="0" result="BackgroundImageFix"/><feColorMatrix in="SourceAlpha" result="hardAlpha" values="0 0 0 0 0 0 0 0 0 0 0 0 0 0 0 0 0 0 127 0"/><feOffset dy="2"/><feGaussianBlur stdDeviation="2"/><feComposite in2="hardAlpha" operator="out"/><feColorMatrix values="0 0 0 0 0 0 0 0 0 0 0 0 0 0 0 0 0 0 0.25 0"/><feBlend in2="BackgroundImageFix" result="effect1_dropShadow_139_241"/><feBlend in="SourceGraphic" in2="effect1_dropShadow_139_241" result="shape"/></filter><radialGradient id="b" cx="0" cy="0" r="1" gradientTransform="matrix(0 43 -43 0 24 19)" gradientUnits="userSpaceOnUse"><stop offset=".438" stop-color="#5D11FF"/><stop offset=".802" stop-color="#84D3FF"/><stop offset="1" stop-color="#D4C0FF"/></radialGradient><linearGradient id="d" x1="24" x2="24" y1="15" y2="37" gradientUnits="userSpaceOnUse"><stop offset=".516" stop-color="#fff"/><stop offset="1" stop-color="#fff" stop-opacity=".59"/></linearGradient></defs></svg>